<svg xmlns="http://www.w3.org/2000/svg" xmlns:xlink="http://www.w3.org/1999/xlink" version="1.1" x="0px" y="0px" viewBox="10.939 18.553 491.06 594.8100000000001" enable-background="new 10.939 18.553 491.06 475.848" xml:space="preserve"><path d="M500.734,356.031l-69.53-89.344h28.624c2.22,0,4.258-1.226,5.299-3.186s0.915-4.334-0.327-6.174l-56.293-83.321L388,143.633  h24.81c2.146,0,4.128-1.146,5.199-3.005c1.071-1.859,1.067-4.149-0.009-6.005l-65.567-113.08c-1.073-1.851-3.051-2.991-5.19-2.991  s-4.117,1.14-5.19,2.99l-48.05,82.855l-0.115-0.2l-32.784-56.59c-1.072-1.852-3.051-2.992-5.191-2.992s-4.119,1.14-5.192,2.992  l-32.782,56.586l-0.571,0.983l-46.48-80.146c-1.073-1.851-3.051-2.991-5.19-2.991s-4.118,1.14-5.19,2.99L94.938,138.113  c-1.076,1.856-1.08,4.146-0.008,6.005c1.071,1.859,3.053,3.005,5.199,3.005h24.81L48.137,260.871  c-1.242,1.839-1.367,4.214-0.326,6.173c1.042,1.96,3.079,3.185,5.298,3.185h28.624l-69.529,89.344  c-1.408,1.809-1.662,4.261-0.655,6.32c1.006,2.059,3.098,3.364,5.39,3.364h95.512l-10.032,12.891  c-1.408,1.809-1.662,4.261-0.655,6.32c1.006,2.059,3.098,3.364,5.39,3.364h30.653v73.988c0,3.313,2.686,6,6,6h43.802  c3.314,0,6-2.687,6-6v-73.988h34.413V488.4c0,3.313,2.686,6,6,6h43.779c3.313,0,6-2.687,6-6v-96.568h35.528v70.453  c0,3.313,2.687,6,6,6h43.802c3.313,0,6-2.687,6-6v-70.453h29.543c2.292,0,4.384-1.306,5.391-3.364  c1.006-2.06,0.752-4.512-0.655-6.32l-12.788-16.432h99.378c2.292,0,4.384-1.306,5.391-3.364  C502.396,360.292,502.142,357.84,500.734,356.031z M29.211,357.257l69.529-89.344c1.408-1.809,1.662-4.261,0.655-6.32  c-1.006-2.059-3.098-3.364-5.39-3.364H64.4l76.801-113.748c1.242-1.839,1.367-4.213,0.326-6.173  c-1.042-1.96-3.079-3.185-5.298-3.185h-25.686l55.153-95.12l44.733,77.133L185.13,160.74c-1.077,1.856-1.08,4.146-0.009,6.006  c1.071,1.859,3.053,3.005,5.199,3.005h24.833l-76.799,113.695c-1.243,1.839-1.368,4.213-0.327,6.173  c1.042,1.96,3.08,3.186,5.299,3.186h28.624l-50.159,64.452H29.211z M181.609,459.82h-31.802v-67.988h31.802V459.82z M271.801,482.4  h-31.779v-90.568h31.779V482.4z M363.131,456.285h-31.802v-64.453h31.802V456.285z M369.131,379.832h-43.802h-47.528h-43.779  h-46.413h-43.802h-24.381l9.91-12.733c0.036-0.043,0.068-0.088,0.103-0.132l59.518-76.478c1.408-1.809,1.662-4.261,0.655-6.32  c-1.006-2.059-3.098-3.364-5.39-3.364h-29.602l76.797-113.696c1.242-1.839,1.367-4.214,0.326-6.173  c-1.041-1.959-3.079-3.185-5.298-3.185h-25.706l21.704-37.407c0.057-0.09,0.108-0.183,0.16-0.276l5.717-9.854l27.592-47.628  l32.682,56.392c0.119,0.247,0.261,0.482,0.413,0.712l22.059,38.062h-25.686c-2.219,0-4.257,1.225-5.299,3.185  c-1.041,1.959-0.915,4.334,0.326,6.173l76.798,113.696h-29.598c-2.292,0-4.384,1.306-5.391,3.364  c-1.006,2.06-0.752,4.512,0.655,6.32l69.53,89.343H369.131z M387.282,353.716l-47.403-60.911h28.619c0.005,0,0.012-0.001,0.02,0  c3.314,0,6-2.687,6-6c0-1.406-0.483-2.699-1.293-3.722l-76.554-113.332h24.808c0.005,0,0.013,0,0.02,0c3.314,0,6-2.687,6-6  c0-1.263-0.39-2.434-1.056-3.401l-25.505-43.991l46.305-79.844l55.152,95.118H376.71c-2.219,0-4.257,1.225-5.298,3.184  c-1.042,1.96-0.917,4.334,0.325,6.173l26.825,39.733l49.971,73.964h-29.602c-2.292,0-4.384,1.306-5.391,3.364  c-1.006,2.06-0.752,4.512,0.655,6.32l69.53,89.344H387.282z"/><text x="10.939" y="509.401" fill="#000000" font-size="5px" font-weight="bold" font-family="'Helvetica Neue', Helvetica, Arial-Unicode, Arial, Sans-serif">Created by ibrandify</text><text x="10.939" y="514.4010000000001" fill="#000000" font-size="5px" font-weight="bold" font-family="'Helvetica Neue', Helvetica, Arial-Unicode, Arial, Sans-serif">from the Noun Project</text></svg>
